FILE "Quiz Scramble Special (1992)(Sega)(JP).img" BINARY
  TRACK 01 MODE1/2352
    INDEX 01 00:00:00
  TRACK 02 AUDIO
    PREGAP 00:02:00
    INDEX 01 02:40:16
  TRACK 03 AUDIO
    INDEX 00 03:48:18
    INDEX 01 03:50:17
  TRACK 04 AUDIO
    INDEX 00 05:03:51
    INDEX 01 05:05:50
  TRACK 05 AUDIO
    INDEX 00 06:36:49
    INDEX 01 06:38:48
  TRACK 06 AUDIO
    INDEX 00 07:13:40
    INDEX 01 07:15:39
  TRACK 07 AUDIO
    INDEX 00 09:01:13
    INDEX 01 09:03:12
  TRACK 08 AUDIO
    INDEX 00 09:11:59
    INDEX 01 09:13:58
  TRACK 09 AUDIO
    INDEX 00 09:22:11
    INDEX 01 09:24:10
  TRACK 10 AUDIO
    INDEX 00 09:31:39
    INDEX 01 09:33:38
  TRACK 11 AUDIO
    INDEX 00 09:37:46
    INDEX 01 09:39:45
  TRACK 12 AUDIO
    INDEX 00 09:43:50
    INDEX 01 09:45:49
  TRACK 13 AUDIO
    INDEX 00 10:32:14
    INDEX 01 10:34:13
  TRACK 14 AUDIO
    INDEX 00 10:49:56
    INDEX 01 10:51:55
  TRACK 15 AUDIO
    INDEX 00 11:12:08
    INDEX 01 11:14:07
  TRACK 16 AUDIO
    INDEX 00 11:27:10
    INDEX 01 11:29:09
  TRACK 17 AUDIO
    INDEX 00 11:48:32
    INDEX 01 11:50:31
  TRACK 18 AUDIO
    INDEX 00 11:59:72
    INDEX 01 12:01:71
  TRACK 19 AUDIO
    INDEX 00 12:18:09
    INDEX 01 12:20:08
  TRACK 20 AUDIO
    INDEX 00 12:35:46
    INDEX 01 12:37:45
  TRACK 21 AUDIO
    INDEX 00 13:08:11
    INDEX 01 13:10:10
  TRACK 22 AUDIO
    INDEX 00 13:32:70
    INDEX 01 13:34:69
  TRACK 23 AUDIO
    INDEX 00 13:50:62
    INDEX 01 13:52:61
  TRACK 24 AUDIO
    INDEX 00 14:17:29
    INDEX 01 14:19:28
  TRACK 25 AUDIO
    INDEX 00 14:23:34
    INDEX 01 14:25:33
  TRACK 26 AUDIO
    INDEX 00 14:29:41
    INDEX 01 14:31:40
  TRACK 27 AUDIO
    INDEX 00 14:35:48
    INDEX 01 14:37:47
  TRACK 28 AUDIO
    INDEX 00 14:44:05
    INDEX 01 14:46:04
  TRACK 29 AUDIO
    INDEX 00 14:51:11
    INDEX 01 14:53:10
  TRACK 30 AUDIO
    INDEX 00 14:57:13
    INDEX 01 14:59:12
  TRACK 31 AUDIO
    INDEX 00 15:03:15
    INDEX 01 15:05:14
  TRACK 32 AUDIO
    INDEX 00 15:09:18
    INDEX 01 15:11:17
  TRACK 33 AUDIO
    INDEX 00 15:18:18
    INDEX 01 15:20:17
  TRACK 34 AUDIO
    INDEX 00 15:24:20
    INDEX 01 15:26:19
  TRACK 35 AUDIO
    INDEX 00 15:30:28
    INDEX 01 15:32:27
  TRACK 36 AUDIO
    INDEX 00 15:36:38
    INDEX 01 15:38:37
  TRACK 37 AUDIO
    INDEX 00 15:42:43
    INDEX 01 15:44:42
  TRACK 38 AUDIO
    INDEX 00 15:49:44
    INDEX 01 15:51:43
  TRACK 39 AUDIO
    INDEX 00 15:57:08
    INDEX 01 15:59:07
  TRACK 40 AUDIO
    INDEX 00 16:08:13
    INDEX 01 16:10:12
  TRACK 41 AUDIO
    INDEX 00 16:14:17
    INDEX 01 16:16:16
